<svg width="251" height="46" viewBox="0 0 251 46" fill="none" xmlns="http://www.w3.org/2000/svg">
<path d="M137.879 33.94C137.879 39.52 135.089 42.31 129.509 42.31C123.929 42.31 121.139 39.52 121.139 33.94V21.137C121.139 20.6617 121.315 20.2483 121.666 19.897C122.017 19.5457 122.431 19.37 122.906 19.37H123.774C124.249 19.37 124.663 19.5457 125.014 19.897C125.365 20.2483 125.541 20.6617 125.541 21.137V34.188C125.541 35.8 125.861 36.9677 126.502 37.691C127.163 38.3937 128.186 38.745 129.571 38.745C130.956 38.745 131.968 38.3937 132.609 37.691C133.27 36.9677 133.601 35.8 133.601 34.188V21.137C133.601 20.6617 133.777 20.2483 134.128 19.897C134.479 19.5457 134.893 19.37 135.368 19.37H136.112C136.587 19.37 137.001 19.5457 137.352 19.897C137.703 20.2483 137.879 20.6617 137.879 21.137V33.94ZM146.737 22.904V29.631C146.737 29.7963 146.83 29.879 147.016 29.879H148.566C152.244 29.879 154.084 28.5667 154.084 25.942C154.084 23.6067 152.379 22.439 148.969 22.439C148.349 22.439 147.698 22.4907 147.016 22.594C146.83 22.6353 146.737 22.7387 146.737 22.904ZM144.226 42C143.75 42 143.337 41.8243 142.986 41.473C142.634 41.1217 142.459 40.7083 142.459 40.233V21.292C142.459 20.796 142.624 20.3517 142.955 19.959C143.285 19.5663 143.699 19.3493 144.195 19.308C145.951 19.1427 147.646 19.06 149.279 19.06C152.317 19.06 154.59 19.6283 156.099 20.765C157.607 21.881 158.362 23.462 158.362 25.508C158.362 26.9753 157.959 28.267 157.153 29.383C156.367 30.499 155.303 31.2843 153.96 31.739C153.939 31.739 153.929 31.7493 153.929 31.77C153.929 31.8113 153.939 31.832 153.96 31.832C154.952 32.452 155.799 33.6713 156.502 35.49L158.362 40.357C158.506 40.7497 158.455 41.1217 158.207 41.473C157.979 41.8243 157.659 42 157.246 42H156.285C155.747 42 155.262 41.8553 154.828 41.566C154.394 41.256 154.084 40.853 153.898 40.357L152.162 35.583C151.79 34.591 151.366 33.94 150.891 33.63C150.415 33.32 149.599 33.165 148.442 33.165H147.016C146.83 33.165 146.737 33.258 146.737 33.444V40.233C146.737 40.7083 146.561 41.1217 146.21 41.473C145.879 41.8243 145.476 42 145.001 42H144.226ZM168.065 32.452C165.585 31.6253 163.787 30.623 162.671 29.445C161.576 28.267 161.028 26.841 161.028 25.167C161.028 23.2863 161.659 21.7983 162.919 20.703C164.18 19.6077 165.947 19.06 168.22 19.06C170.142 19.06 171.816 19.277 173.242 19.711C173.738 19.8557 174.131 20.1553 174.42 20.61C174.73 21.044 174.885 21.5297 174.885 22.067V22.346C174.885 22.7387 174.71 23.0487 174.358 23.276C174.007 23.4827 173.645 23.5137 173.273 23.369C171.723 22.7697 170.142 22.47 168.53 22.47C167.497 22.47 166.712 22.7077 166.174 23.183C165.637 23.6583 165.368 24.3197 165.368 25.167C165.368 26.655 166.34 27.7193 168.282 28.36C171.072 29.2487 173.005 30.2613 174.079 31.398C175.175 32.5347 175.722 34.002 175.722 35.8C175.722 40.14 173.046 42.31 167.693 42.31C166.019 42.31 164.5 42.0517 163.136 41.535C162.64 41.349 162.248 41.0287 161.958 40.574C161.69 40.1193 161.555 39.613 161.555 39.055V38.683C161.555 38.2903 161.721 38.0113 162.051 37.846C162.382 37.66 162.723 37.6497 163.074 37.815C164.438 38.497 165.875 38.838 167.383 38.838C170.008 38.838 171.32 37.846 171.32 35.862C171.32 35.056 171.072 34.3947 170.576 33.878C170.08 33.3407 169.243 32.8653 168.065 32.452ZM195.974 33.94C195.974 39.52 193.184 42.31 187.604 42.31C182.024 42.31 179.234 39.52 179.234 33.94V21.137C179.234 20.6617 179.409 20.2483 179.761 19.897C180.112 19.5457 180.525 19.37 181.001 19.37H181.869C182.344 19.37 182.757 19.5457 183.109 19.897C183.46 20.2483 183.636 20.6617 183.636 21.137V34.188C183.636 35.8 183.956 36.9677 184.597 37.691C185.258 38.3937 186.281 38.745 187.666 38.745C189.05 38.745 190.063 38.3937 190.704 37.691C191.365 36.9677 191.696 35.8 191.696 34.188V21.137C191.696 20.6617 191.871 20.2483 192.223 19.897C192.574 19.5457 192.987 19.37 193.463 19.37H194.207C194.682 19.37 195.095 19.5457 195.447 19.897C195.798 20.2483 195.974 20.6617 195.974 21.137V33.94ZM202.94 42C202.465 42 202.052 41.8243 201.7 41.473C201.349 41.1217 201.173 40.7083 201.173 40.233V21.137C201.173 20.6617 201.349 20.2483 201.7 19.897C202.052 19.5457 202.465 19.37 202.94 19.37H204.18C204.656 19.37 205.069 19.5457 205.42 19.897C205.772 20.2483 205.947 20.6617 205.947 21.137V40.233C205.947 40.7083 205.772 41.1217 205.42 41.473C205.069 41.8243 204.656 42 204.18 42H202.94ZM217.714 32.452C215.234 31.6253 213.436 30.623 212.32 29.445C211.225 28.267 210.677 26.841 210.677 25.167C210.677 23.2863 211.307 21.7983 212.568 20.703C213.829 19.6077 215.596 19.06 217.869 19.06C219.791 19.06 221.465 19.277 222.891 19.711C223.387 19.8557 223.78 20.1553 224.069 20.61C224.379 21.044 224.534 21.5297 224.534 22.067V22.346C224.534 22.7387 224.358 23.0487 224.007 23.276C223.656 23.4827 223.294 23.5137 222.922 23.369C221.372 22.7697 219.791 22.47 218.179 22.47C217.146 22.47 216.36 22.7077 215.823 23.183C215.286 23.6583 215.017 24.3197 215.017 25.167C215.017 26.655 215.988 27.7193 217.931 28.36C220.721 29.2487 222.653 30.2613 223.728 31.398C224.823 32.5347 225.371 34.002 225.371 35.8C225.371 40.14 222.695 42.31 217.342 42.31C215.668 42.31 214.149 42.0517 212.785 41.535C212.289 41.349 211.896 41.0287 211.607 40.574C211.338 40.1193 211.204 39.613 211.204 39.055V38.683C211.204 38.2903 211.369 38.0113 211.7 37.846C212.031 37.66 212.372 37.6497 212.723 37.815C214.087 38.497 215.523 38.838 217.032 38.838C219.657 38.838 220.969 37.846 220.969 35.862C220.969 35.056 220.721 34.3947 220.225 33.878C219.729 33.3407 218.892 32.8653 217.714 32.452ZM231.269 42C230.794 42 230.38 41.8243 230.029 41.473C229.678 41.1217 229.502 40.7083 229.502 40.233V38.497C229.502 38.0217 229.678 37.6083 230.029 37.257C230.38 36.9057 230.794 36.73 231.269 36.73H232.695C233.17 36.73 233.584 36.9057 233.935 37.257C234.286 37.6083 234.462 38.0217 234.462 38.497V40.233C234.462 40.7083 234.286 41.1217 233.935 41.473C233.584 41.8243 233.17 42 232.695 42H231.269Z" fill="black"/>
<path d="M98.4432 22.7957V30.6708C98.4432 31.756 99.3348 32.6371 100.433 32.6371C101.531 32.6371 102.423 31.756 102.423 30.6708V22.7957C104.216 22.0344 105.471 20.2722 105.471 18.2216C105.471 15.4713 103.216 13.2426 100.433 13.2426C97.6499 13.2426 95.3945 15.4713 95.3945 18.2216C95.3945 20.2754 96.65 22.0344 98.4432 22.7957Z" fill="#6052FA"/>
<path d="M100.433 36.0418C98.3578 36.0418 96.5745 37.2825 95.8042 39.0545H86.3797C85.2815 39.0545 84.3899 39.9356 84.3899 41.0208C84.3899 42.106 85.2815 42.9872 86.3797 42.9872H95.8042C96.5745 44.7591 98.3578 45.9999 100.433 45.9999C103.216 45.9999 105.471 43.7711 105.471 41.0208C105.471 38.2705 103.216 36.0418 100.433 36.0418Z" fill="#6052FA"/>
<path d="M78.6893 36.4467V28.225C78.6893 27.1398 77.7977 26.2587 76.6995 26.2587C75.6013 26.2587 74.7097 27.1398 74.7097 28.225V36.3496L69.2353 31.5001C68.4158 30.7745 67.1603 30.8425 66.426 31.6524C65.6917 32.4622 65.7605 33.7029 66.5801 34.4286L72.002 39.2294C71.7857 39.7866 71.6611 40.3891 71.6611 41.0208C71.6611 43.7711 73.9164 45.9998 76.6995 45.9998C79.4826 45.9998 81.7379 43.7711 81.7379 41.0208C81.7379 38.9703 80.4824 37.2112 78.6893 36.4467Z" fill="#6052FA"/>
<path d="M76.6995 23.2006C78.7746 23.2006 80.5579 21.9599 81.3282 20.1879H90.7527C91.8508 20.1879 92.7425 19.3068 92.7425 18.2216C92.7425 17.1364 91.8508 16.2553 90.7527 16.2553H81.3282C80.5579 14.4833 78.7746 13.2426 76.6995 13.2426C73.9165 13.2426 71.6611 15.4713 71.6611 18.2216C71.6611 20.9719 73.9165 23.2006 76.6995 23.2006Z" fill="#6052FA"/>
<path d="M60.6403 21.5291C59.9617 21.5291 59.316 21.6619 58.7259 21.9016L53.1761 16.9874C52.3566 16.2618 51.1011 16.3298 50.3668 17.1397C49.6325 17.9495 49.7013 19.1902 50.5209 19.9159L55.9428 24.7167C55.7265 25.2739 55.6019 25.8764 55.6019 26.5081C55.6019 29.2584 57.8572 31.4872 60.6403 31.4872C63.4234 31.4872 65.6787 29.2584 65.6787 26.5081C65.6787 23.7578 63.4234 21.5291 60.6403 21.5291Z" fill="#6052FA"/>
<path d="M50.3799 9.51397C49.4358 6.92566 46.5511 5.58453 43.9319 6.51749C43.2927 6.74425 42.7321 7.08763 42.2601 7.512L35.3531 4.74552C34.3336 4.33735 33.1765 4.82326 32.7634 5.83073C32.3504 6.8382 32.8421 7.98172 33.8616 8.38989L40.6079 11.0916C40.5948 11.6876 40.6833 12.2967 40.8997 12.8927C41.8437 15.481 44.7285 16.8222 47.3476 15.8892C49.9668 14.9562 51.324 12.1023 50.3799 9.51397Z" fill="#6052FA"/>
<path d="M27.3775 0.446811C24.8436 -0.690233 21.8572 0.417656 20.7066 2.92174C20.428 3.53076 20.2837 4.16893 20.2608 4.79738L16.8549 6.27457C15.8485 6.71189 15.3928 7.87161 15.8321 8.86288C16.2747 9.85739 17.4482 10.3077 18.4513 9.87358L21.6999 8.46443C22.1228 8.88879 22.6276 9.25161 23.2078 9.51401C25.7418 10.651 28.7281 9.54316 29.8787 7.03907C31.0326 4.53498 29.9115 1.58385 27.3775 0.446811Z" fill="#6052FA"/>
<path d="M12.8838 16.176C15.2252 13.8622 15.2252 10.1108 12.8838 7.79696C10.5424 5.48315 6.74619 5.48315 4.40478 7.79696C2.06337 10.1108 2.06337 13.8622 4.40478 16.176C6.74619 18.4898 10.5424 18.4898 12.8838 16.176Z" fill="#6052FA"/>
</svg>
